# xmcd
#
# Track frame offsets: 
#        150
#        21481
#        52691
#        77659
#        94187
#        113845
#        115802
#        135073
#        154637
#        169506
#        172679
#        189450
#        232852
#        237837
#
# Disc length: 3572 seconds
#
# Revision: 0
# Processed by: cddbd v1.5.2PL0 Copyright (c) Steve Scherf et al.
# Submitted via: ExactAudioCopy v1.0b4
#
DISCID=930df20e
DTITLE=Sonny Landreth - Live At Jazz Fest 2007
DYEAR=2007
DGENRE=Blues
TTITLE0=Port
TTITLE1=South of I-10
TTITLE2=Stepson
TTITLE3=Promise Land
TTITLE4=Denver
TTITLE5=Stage Banter
TTITLE6=Milky Way
TTITLE7=When I Still Have You
TTITLE8=Blue Angel
TTITLE9=Banter
TTITLE10=Like Nowhere Else
TTITLE11=Congo Square
TTITLE12=Band Intros
TTITLE13=Bayou Tech
EXTD=
EXTT0=
EXTT1=
EXTT2=
EXTT3=
EXTT4=
EXTT5=
EXTT6=
EXTT7=
EXTT8=
EXTT9=
EXTT10=
EXTT11=
EXTT12=
EXTT13=
PLAYORDER=
